<svg xmlns="http://www.w3.org/2000/svg" version="1.1" xmlns:xlink="http://www.w3.org/1999/xlink" xmlns:svgjs="http://svgjs.dev/svgjs" width="2000" height="1500" viewBox="0 0 2000 1500"><rect width="2000" height="1500" fill="#000000"></rect><g transform="matrix(0.4444444444444444,0,0,0.4444444444444444,555.5555555555557,250)"><svg viewBox="0 0 320 360" data-background-color="#ffffff" preserveAspectRatio="xMidYMid meet" height="2250" width="2000" xmlns="http://www.w3.org/2000/svg" xmlns:xlink="http://www.w3.org/1999/xlink"><g id="tight-bounds" transform="matrix(1,0,0,1,0,0)"><svg viewBox="0 0 320 360" height="360" width="320"><g><svg></svg></g><g><svg viewBox="0 0 320 360" height="360" width="320"><g><path xmlns="http://www.w3.org/2000/svg" d="M219.58 41.008c0.707 0 6.365 2.829 9.547 3.89-1.061 0.354-3.536-0.707-6.365-1.768 0.707 0 2.122 0.354 3.536 1.06-0.707-0.707-6.011-2.475-6.718-3.182M166.895 30.047c1.061-0.354 13.436 1.414 19.094 1.768 0.354-0.354-0.707-0.354-2.122-0.707 1.768-0.354 5.304 0.707 7.779 1.06-7.425 0.354-15.558-1.768-22.629-1.06-2.475 0-0.707-0.707-2.122-1.061M156.641 30.047c6.365 0 11.315 0 2.121 0.707-1.061-0.354-2.475-0.354-2.121-0.707M256.707 59.395c0.707 0 3.536 3.182 4.95 4.243-0.354 0.354-3.182-2.475-4.596-3.536 0.354 0.354 0 0-0.354-0.707M249.635 54.798c-2.829-2.475-3.889-2.475-4.243-3.889 2.475 1.414 4.243 2.829 4.243 3.889M204.022 32.522c0.354-0.354 1.061 0.354 2.829 0.707-2.122-0.354-1.768 0-1.061 0.707-2.475-0.354-3.182-0.707-2.475-1.414 1.414 0.707 1.768 0.354 0.707 0M103.602 36.765c0-0.354 1.414-1.061 2.475-1.414-1.061 0.707-0.707 1.061 1.061 0.353 0 0.354-2.122 1.061-3.536 1.768 0.707-0.354 1.414-1.414 0-0.707M211.094 28.986c-1.061 0.354-4.95-1.768-8.84-2.475-2.122-0.707 8.486 1.768 8.84 2.475M2.475 203.66c2.122 8.84 0.707 8.486 0 0M2.829 150.621c0.354-1.414 0.707-5.304 1.06-4.95-1.061 8.486-2.829 12.376-3.182 18.74 1.061-5.657-0.354 3.182-0.707 5.304 0.354 2.829 0.354-1.768 1.061-1.06 0.707 1.061-1.414 15.912-0.707 7.779-0.707 7.425 0 15.558 1.414 17.679-1.768 11.315 7.072 36.773 8.84 42.077 0.354 0.354 0-1.768 0.707-0.353 0.707 4.597 3.889 7.779 4.95 12.729 1.061 1.414 5.304 9.193 6.011 10.962 1.414 2.829 2.122 2.475 3.536 5.303 4.243 8.133 10.961 15.912 17.326 23.337 20.508 24.044 51.978 43.845 86.984 50.918 35.006 7.425 71.779 2.122 100.419-11.669 1.768-1.061 1.414-1.414 3.536-2.122 9.901-3.182 21.923-13.436 28.641-17.326 3.182-3.536 11.669-9.547 12.73-13.082 6.011-4.95 12.022-13.083 15.204-18.387 1.768-2.829 3.182-2.829 3.889-4.597-0.354 0 5.657-7.425 7.426-11.668-0.707 0-1.768 2.122-1.768 0 12.729-24.398 19.801-57.282 15.911-79.912 0.707 27.934-6.365 59.05-19.801 78.851-6.011 12.729-18.387 26.519-29.701 36.42-1.768 1.768-3.536 3.889-5.658 5.304-6.718 5.657-14.144 10.254-21.922 14.497-18.387 10.254-38.895 19.094-62.94 19.447 41.37-3.536 78.497-24.398 99.006-49.856-15.558 15.204-22.276 21.215-39.602 30.055-1.414 2.475-13.083 7.425-20.862 9.547 4.597-2.122 14.144-5.657 17.326-8.486-25.812 12.376-54.453 19.448-81.326 15.558 10.254 0 24.751 0.354 38.541-2.121 2.122-0.707 3.182-1.414 5.658-1.768 26.873-6.011 52.685-19.094 71.072-37.481-10.608 9.547-26.519 20.862-36.774 24.398 9.547-5.304 26.873-15.558 32.53-23.337-11.315 11.315-32.53 22.63-45.966 27.58-2.122 0.354 1.414-1.414-2.122 0-4.243 1.061-2.475 1.061-3.536 1.768-16.265 4.597-35.006 8.486-50.563 7.072-2.829-0.354-3.889-1.061-6.365-1.061-2.829-0.354-5.304-0.354-8.486-0.354-12.376-1.414-25.812-6.365-35.713-10.607-5.304-2.475-10.608-4.243-15.912-7.426-4.243-2.475-7.779-5.304-11.314-8.132-13.436-9.901-24.751-19.801-35.36-33.945-19.094-26.519-28.994-59.757-27.58-92.641 1.414-32.884 14.497-65.061 35.359-88.752-1.061 1.061 1.414-2.475 3.536-4.596 0 0.707-0.354 1.768 2.122-0.707 2.122-2.475-0.707-0.707 0.353-2.122 21.923-24.044 60.111-43.492 99.36-44.199 1.414-1.061 3.889-2.475 6.718-1.768 0 0.354-1.768 0.354-1.768 0.354 3.889-0.354 7.425-0.354 9.193 0.353 0.354-0.354-1.414-0.707 0-0.707 2.475 0.707 3.182 0 4.597 0.707-1.061 0-2.122 0-2.829 0.354 8.84 0 14.497 2.122 23.337 2.829-4.597-1.061-5.657-1.061-9.193-2.122 3.889 0.707 5.657 1.414 7.425 1.061-0.707 0-0.354-1.061 0.354-0.707 7.072 1.768 7.779 2.475 15.204 4.95 0.707-0.707-3.182-1.061-4.243-2.122 7.072 2.475 13.436 4.243 17.68 7.072-1.414-1.061-5.657-2.475-8.84-3.889-0.354 0.354 1.061 0.707 1.414 1.414-3.536-1.768-8.486-3.536-13.436-4.243 4.243 1.061 7.072 2.475 8.84 3.182-3.889-0.707-8.84-3.182-14.498-4.243 9.193 2.829 26.519 9.193 37.127 14.851-3.889-2.475-8.486-4.243-10.961-5.657 2.122 0.354 4.597 1.768 4.597 1.06 2.475 1.061 5.657 3.536 7.425 3.89-3.182-2.122-9.547-5.304-11.668-6.365 26.519 12.022 50.21 32.177 65.414 57.989 1.414 2.475 3.536 8.133 5.304 8.84-0.354-1.768-1.768-2.829-3.182-5.657 0.707 0 0.707-1.061 0-2.122-1.414-1.768 0 1.414-1.415-0.354-6.365-11.669-14.144-21.923-26.165-33.237 6.718 6.365 1.768 1.768 0.353-0.354 9.193 8.133 19.801 21.923 24.398 28.995-0.707-1.061-1.061-1.768-0.707-1.768 8.486 14.497 13.79 27.58 19.094 46.32 0.354 0.354 0-1.414 0.707-0.353 3.536 14.851 4.597 27.227 4.243 38.541 2.829-19.094-3.536-48.796-14.851-72.133-1.414-2.829-1.414-0.707-2.829-3.889 0-1.061-1.061-3.182-1.768-4.597-14.144-23.337-31.47-39.956-51.978-53.038 1.414 0.707 4.243 2.829 4.244 2.475-38.188-25.105-82.387-28.641-118.807-20.862-2.475 1.061-3.536 2.122-6.365 3.536 5.304-1.768 8.486-2.122 13.437-3.183 1.061-1.061-4.597 0.354-2.122-0.707 0.354 0.354 4.95-0.707 6.011-0.353 0 0.354-1.414 0.707-1.768 1.06 11.669-2.475 23.691-2.829 33.945-2.121-6.011 0.354-16.972-0.707-20.508 1.061 3.536-0.354 8.486-0.707 11.668-0.354-4.243 0-12.022 0.354-15.558 0.707-0.354-0.354 5.657-1.061 1.768-1.06-1.768 0.354-4.597 0.354-5.657 1.414-30.409 2.829-60.111 18.74-80.973 37.481-4.243 3.536-9.193 7.425-12.375 11.314-7.779 8.84-12.729 17.68-18.387 25.459 3.536-7.425 11.315-18.74 20.508-28.287 9.193-9.547 19.094-17.68 24.398-21.923 0 1.414 8.486-5.304 11.669-7.425-2.122 1.768 1.414-0.707 2.121-0.354 11.315-6.718 20.508-9.193 30.763-13.083-2.475 0.707-4.597 1.414-4.951 1.061 2.475-0.707 3.889-1.414 3.536-1.768-9.901 2.829-25.459 9.547-37.834 16.972 22.276-15.204 50.564-24.398 78.497-24.751 27.934-0.707 55.16 6.365 76.729 17.68 14.497 6.365 28.287 18.033 39.249 29.348 3.182 2.829 0.707-0.707 5.304 4.243-1.414-0.707-2.475-1.414-0.707 0.707 2.829 3.182-0.707-2.475 3.889 3.182-0.354 0-1.768-1.768-1.768-1.061 12.376 10.961 21.923 30.762 27.58 43.846-1.414-5.304-4.95-12.729-7.779-18.033 8.486 15.558 11.315 24.751 14.851 38.541 1.414 1.061-0.707-4.95 0.707-2.121 0.354 2.122 0.707 8.84 2.122 9.9-1.061-6.718-2.829-14.851-4.243-16.265 1.061 0.707-1.768-8.133-3.536-10.254-0.707-5.657-5.657-15.558-9.901-22.984-15.204-29.702-42.431-54.099-72.839-67.536 0-0.707-1.768-1.414-2.476-2.121-30.055-12.729-66.122-16.265-100.773-8.133-35.006 8.486-67.889 28.641-91.227 57.636 1.061-3.536 9.901-10.254 10.255-13.083-10.254 10.961-21.215 25.459-28.641 41.016-7.779 15.558-12.022 31.47-13.79 43.138" fill="#ffffff" fill-rule="nonzero" stroke="none" stroke-width="1" stroke-linecap="butt" stroke-linejoin="miter" stroke-miterlimit="10" stroke-dasharray="" stroke-dashoffset="0" font-family="none" font-weight="none" font-size="none" text-anchor="none" style="mix-blend-mode: normal" data-fill-palette-color="tertiary"></path></g><g transform="matrix(1,0,0,1,48,90.08999999999999)"><svg viewBox="0 0 224 179.82000000000002" height="179.82000000000002" width="224"><g><svg viewBox="0 0 224 179.82000000000002" height="179.82000000000002" width="224"><g><svg viewBox="0 0 224 179.82000000000002" height="179.82000000000002" width="224"><g><svg viewBox="0 0 224 179.82000000000002" height="179.82000000000002" width="224"><g><svg viewBox="0 0 224 179.82000000000002" height="179.82000000000002" width="224"><g transform="matrix(1,0,0,1,50.867783575736524,36.93002441959793)"><svg viewBox="0 0 122.26443284852695 105.95995116080417" height="105.95995116080417" width="122.26443284852695"><g><circle r="53" cx="61.132216424263476" cy="52.97997558040208" fill="#ffffff" data-fill-palette-color="accent"></circle><svg xmlns="http://www.w3.org/2000/svg" xmlns:xlink="http://www.w3.org/1999/xlink" version="1.1" x="19.79898987322333" y="19.79898987322333" viewBox="1 1.9010000228881836 62 61.0989990234375" style="enable-background:new 0 0 64 64;" xml:space="preserve" height="66.3619714143575" width="82.66645310208028" class="icon-o-0" data-fill-palette-color="quaternary" id="o-0"><g fill="#ffffff" data-fill-palette-color="quaternary"><path d="M60 17v-4h-2V9H48v4h-4V7.356L32 1.901 20 7.356V13h-4V9H6v4H4v4H1v46h16 30 16V17H60zM61 29H43V19h18V29zM39 61h-2V49H27v12h-2V51h-6v-6h26v6h-6V61zM35 61h-6V51h6V61zM16 15v2h-4v-2H16zM18 15h4v2h-4V15zM48 17v-2h4v2H48zM46 17h-4v-2h4V17zM45 43h-3v-4h3V43zM23 33h8v4h-8V33zM23 25h8v6h-8V25zM33 25h8v6h-8V25zM22 39v4h-3v-4H22zM24 39h4v4h-4V39zM30 39h4v4h-4V39zM36 39h4v4h-4V39zM33 37v-4h8v4H33zM41 23h-8v-4h8V23zM40 17h-4v-2h4V17zM34 17h-4v-2h4V17zM28 17h-4v-2h4V17zM31 19v4h-8v-4H31zM21 33H3v-2h18V33zM21 35v2h-4v8H3V35H21zM17 47v2H3v-2H17zM47 47h14v2H47V47zM47 45v-8h-4v-2h18v10H47zM43 33v-2h18v2H43zM54 17v-2h4v2H54zM50 11h6v2h-6V11zM38.383 7H25.617L32 4.099 38.383 7zM22 9h20v4H22V9zM8 11h6v2H8V11zM6 15h4v2H6V15zM21 19v10H3V19H21zM3 61V51h14v10H3zM19 53h4v8h-4V53zM41 61v-8h4v8H41zM47 61V51h14v10H47z" fill="#000000" data-fill-palette-color="quaternary"></path><path d="M11 21H5v6h6V21zM9 25H7v-2h2V25z" fill="#000000" data-fill-palette-color="quaternary"></path><path d="M19 21h-6v6h6V21zM17 25h-2v-2h2V25z" fill="#000000" data-fill-palette-color="quaternary"></path><path d="M15 43v-6H5v6H15zM7 39h6v2H7V39z" fill="#000000" data-fill-palette-color="quaternary"></path><path d="M5 53v6h10v-6H5zM7 55h2v2H7V55zM13 57h-2v-2h2V57z" fill="#000000" data-fill-palette-color="quaternary"></path><path d="M59 21h-6v6h6V21zM57 25h-2v-2h2V25z" fill="#000000" data-fill-palette-color="quaternary"></path><path d="M51 27v-6h-6v6H51zM47 23h2v2h-2V23z" fill="#000000" data-fill-palette-color="quaternary"></path><path d="M49 37v6h10v-6H49zM57 41h-6v-2h6V41z" fill="#000000" data-fill-palette-color="quaternary"></path><path d="M49 59h10v-6H49V59zM57 57h-2v-2h2V57zM51 55h2v2h-2V55z" fill="#000000" data-fill-palette-color="quaternary"></path></g></svg></g></svg></g><path d="M87.793 0L88.053 0.014 97.3 12.72C97.847 13.474 98.282 14.048 98.603 14.444V14.444C98.782 14.68 99.119 14.822 99.616 14.871 100.113 14.92 100.468 14.915 100.68 14.857V14.857C100.752 14.838 100.835 14.996 100.927 15.334V15.334C100.947 15.407 100.952 15.501 100.941 15.618V15.618C99.131 16.021 98.136 16.247 97.958 16.295V16.295C97.938 16.301 96.911 16.628 94.876 17.277V17.277C94.79 17.222 94.72 17.082 94.665 16.855 94.612 16.635 94.621 16.515 94.694 16.495V16.495C94.913 16.435 95.168 16.315 95.46 16.136 95.761 15.961 95.918 15.794 95.931 15.634V15.634C95.924 15.479 95.902 15.332 95.864 15.193V15.193C95.8 14.962 95.696 14.695 95.549 14.394 95.398 14.101 95.271 13.872 95.17 13.708V13.708L94.989 13.437 93.059 10.711C92.986 10.653 92.92 10.632 92.86 10.648V10.648C92.151 10.785 91.465 10.944 90.804 11.125V11.125C89.871 11.381 88.748 11.734 87.434 12.186V12.186L87.317 12.303 86.975 15.576C86.915 16.553 86.931 17.21 87.023 17.547V17.547C87.092 17.799 87.21 17.958 87.378 18.026V18.026C87.578 18.107 87.868 18.141 88.249 18.129 88.628 18.111 88.897 18.08 89.056 18.037V18.037C89.109 18.022 89.171 18.119 89.242 18.327 89.309 18.544 89.337 18.7 89.327 18.795V18.795C87.511 19.199 86.576 19.409 86.523 19.423V19.423C86.165 19.521 85.853 19.614 85.585 19.701 85.326 19.793 85.034 19.895 84.708 20.005 84.381 20.109 84.068 20.212 83.769 20.315V20.315C83.676 20.262 83.603 20.14 83.551 19.948V19.948C83.482 19.697 83.484 19.561 83.557 19.541V19.541C83.769 19.483 84.034 19.361 84.353 19.174 84.667 18.996 84.864 18.806 84.944 18.607V18.607C85.189 18.02 85.38 17.065 85.515 15.741V15.741L86.908 2.461C86.918 2.366 86.925 2.211 86.93 1.996 86.942 1.78 86.952 1.62 86.96 1.519 86.972 1.409 86.994 1.267 87.025 1.095 87.05 0.925 87.082 0.795 87.122 0.706 87.155 0.619 87.199 0.522 87.255 0.414 87.309 0.299 87.381 0.212 87.471 0.152 87.56 0.085 87.667 0.034 87.793 0ZM87.586 10.555V10.555C88.53 10.339 89.17 10.185 89.508 10.093V10.093C90.295 9.878 91.102 9.628 91.928 9.346V9.346L91.969 9.185 88.175 3.854 87.509 10.469C87.527 10.535 87.553 10.564 87.586 10.555ZM155.938 7.365L158.782 9.107C159.266 9.393 159.842 9.714 160.509 10.068 161.185 10.421 161.757 10.735 162.223 11.01V11.01C162.749 11.321 163.233 11.715 163.676 12.193 164.113 12.666 164.489 13.211 164.802 13.827 165.118 14.452 165.261 15.154 165.23 15.933 165.2 16.712 164.954 17.491 164.493 18.271V18.271C164.217 18.737 163.822 19.177 163.307 19.59 162.788 20.008 162.189 20.355 161.508 20.63 160.827 20.905 160.067 21.018 159.228 20.968 158.386 20.908 157.567 20.643 156.77 20.171V20.171C155.878 19.644 155.397 19.056 155.325 18.409V18.409C155.297 18.241 155.382 18.043 155.579 17.818V17.818C155.63 17.76 155.667 17.75 155.692 17.789V17.789C156.066 18.249 156.548 18.653 157.138 19.002V19.002C157.935 19.474 158.822 19.544 159.799 19.213 160.767 18.885 161.525 18.257 162.073 17.33V17.33C162.743 16.196 163.026 15.152 162.921 14.197 162.82 13.236 162.25 12.449 161.21 11.834V11.834C160.496 11.411 159.905 11.138 159.437 11.012V11.012C159.349 10.985 159.257 11.013 159.158 11.099 159.069 11.182 158.9 11.408 158.649 11.778 158.398 12.148 158.046 12.717 157.592 13.484V13.484L152.537 22.032C151.905 23.101 151.557 23.831 151.492 24.224V24.224C151.452 24.479 151.636 24.815 152.044 25.231 152.457 25.651 152.767 25.922 152.974 26.044V26.044C153.039 26.083 153.005 26.214 152.872 26.439V26.439C152.788 26.58 152.701 26.688 152.609 26.761V26.761C151.06 25.742 150.047 25.09 149.568 24.808V24.808L146.577 23.194C146.558 23.119 146.62 22.96 146.763 22.718V22.718C146.885 22.511 146.97 22.422 147.017 22.45V22.45C147.242 22.583 147.58 22.719 148.031 22.858 148.489 23.001 148.801 23.026 148.967 22.934V22.934C149.189 22.802 149.687 22.08 150.462 20.769V20.769L155.816 11.717C156.371 10.778 156.723 10.061 156.872 9.567V9.567C156.896 9.406 156.731 9.145 156.378 8.785 156.019 8.421 155.736 8.178 155.53 8.056V8.056C155.465 8.018 155.488 7.904 155.6 7.715V7.715C155.722 7.508 155.835 7.392 155.938 7.365ZM39.887 117.352L39.893 117.501 32.948 123.126C32.537 123.456 32.222 123.718 32.004 123.913V123.913C31.876 124.027 31.807 124.224 31.797 124.501 31.781 124.781 31.793 124.983 31.834 125.107V125.107C31.847 125.146 31.759 125.196 31.57 125.259V125.259C31.531 125.272 31.476 125.279 31.404 125.281V125.281C31.126 124.26 30.97 123.701 30.938 123.603V123.603C30.934 123.59 30.716 123.016 30.284 121.879V121.879C30.317 121.825 30.396 121.781 30.522 121.747 30.648 121.713 30.717 121.715 30.73 121.754V121.754C30.769 121.871 30.844 122.013 30.956 122.178 31.062 122.345 31.162 122.428 31.255 122.426V122.426C31.342 122.427 31.424 122.414 31.502 122.388V122.388C31.633 122.345 31.779 122.275 31.942 122.178 32.108 122.088 32.234 122.01 32.321 121.945V121.945L32.468 121.832 33.966 120.656C33.994 120.611 34.004 120.575 33.995 120.549V120.549C33.899 120.147 33.79 119.761 33.668 119.389V119.389C33.496 118.868 33.261 118.241 32.962 117.509V117.509L32.897 117.444 31.023 117.346C30.472 117.339 30.098 117.368 29.903 117.433V117.433C29.766 117.478 29.681 117.549 29.648 117.646V117.646C29.607 117.761 29.596 117.927 29.617 118.144 29.636 118.355 29.66 118.506 29.69 118.597V118.597C29.701 118.629 29.648 118.665 29.531 118.704 29.409 118.751 29.319 118.773 29.26 118.771V118.771C28.982 117.75 28.838 117.227 28.83 117.201V117.201C28.763 116.999 28.702 116.824 28.646 116.676 28.584 116.531 28.515 116.366 28.44 116.181 28.373 116.001 28.306 115.828 28.237 115.663V115.663C28.269 115.609 28.338 115.564 28.442 115.53V115.53C28.586 115.483 28.664 115.479 28.677 115.518V115.518C28.715 115.635 28.793 115.783 28.909 115.961 29.017 116.135 29.128 116.243 29.243 116.285V116.285C29.586 116.403 30.135 116.482 30.892 116.522V116.522L38.467 116.92C38.525 116.923 38.616 116.925 38.74 116.928 38.862 116.924 38.952 116.923 39.01 116.925 39.069 116.928 39.151 116.937 39.257 116.952 39.355 116.964 39.428 116.976 39.475 116.989 39.525 117.009 39.584 117.033 39.651 117.061 39.711 117.092 39.76 117.13 39.797 117.176 39.836 117.228 39.866 117.287 39.887 117.352ZM33.896 117.548V117.548C34.048 118.076 34.155 118.434 34.217 118.623V118.623C34.363 119.066 34.526 119.518 34.707 119.979V119.979L34.801 120.002 37.722 117.686 33.944 117.499C33.905 117.512 33.889 117.528 33.896 117.548ZM42.254 123.697V123.697C42.431 124.046 42.673 124.465 42.982 124.955V124.955C42.802 125.131 40.916 127.255 37.325 131.33V131.33C37.303 131.348 37.3 131.373 37.316 131.403V131.403C37.334 131.44 37.368 131.454 37.417 131.444V131.444C40.043 131.271 42.195 131.102 43.872 130.939V130.939C43.872 130.939 44.534 130.842 45.859 130.65V130.65C46.126 131.268 46.305 131.67 46.398 131.853V131.853C46.692 132.435 46.976 132.952 47.251 133.405V133.405C47.178 133.473 47.114 133.521 47.059 133.549V133.549C46.924 133.617 46.846 133.629 46.824 133.586V133.586L46.81 133.559C46.757 133.455 46.657 133.333 46.509 133.192 46.361 133.051 46.235 132.954 46.131 132.899V132.899C45.989 132.832 45.646 132.936 45.101 133.212V133.212C44.948 133.289 43.056 134.299 39.425 136.241V136.241C38.896 136.516 38.5 136.804 38.237 137.106V137.106C38.17 137.186 38.168 137.364 38.23 137.64 38.293 137.916 38.35 138.106 38.403 138.21V138.21C38.421 138.247 38.363 138.299 38.228 138.367V138.367C38.149 138.407 38.074 138.434 38.003 138.446V138.446C37.576 137.479 37.317 136.906 37.228 136.728V136.728C37.203 136.679 36.894 136.128 36.3 135.075V135.075C36.321 135.011 36.387 134.951 36.497 134.895V134.895C36.62 134.833 36.692 134.824 36.714 134.867V134.867C36.76 134.958 36.856 135.087 37.001 135.252 37.142 135.426 37.259 135.544 37.352 135.605V135.605C37.475 135.681 37.705 135.634 38.042 135.464V135.464L38.795 135.083 43.68 132.408C43.827 132.318 43.991 132.201 44.171 132.056 44.352 131.911 44.431 131.817 44.409 131.774V131.774C44.4 131.756 44.354 131.748 44.271 131.752V131.752L35.718 132.372C35.221 132.392 34.931 132.32 34.848 132.154V132.154C34.832 132.124 34.82 132.076 34.81 132.012V132.012L41.397 124.626C40.482 125.065 39.433 125.56 38.251 126.111 37.06 126.659 36.078 127.113 35.307 127.472 34.532 127.825 34.135 128.006 34.117 128.015V128.015C33.952 128.099 33.843 128.188 33.791 128.284 33.749 128.382 33.767 128.592 33.845 128.914 33.913 129.233 33.973 129.441 34.022 129.539V129.539C34.041 129.576 33.98 129.63 33.839 129.701V129.701C33.765 129.738 33.693 129.763 33.623 129.776V129.776C33.195 128.808 32.944 128.25 32.87 128.104V128.104C32.858 128.079 32.555 127.54 31.961 126.487V126.487C31.986 126.414 32.044 126.354 32.136 126.307V126.307C32.27 126.239 32.35 126.23 32.375 126.278V126.278C32.44 126.407 32.568 126.585 32.759 126.811 32.953 127.043 33.115 127.181 33.244 127.223V127.223C33.483 127.286 33.935 127.162 34.6 126.849V126.849C35.583 126.376 36.558 125.91 37.526 125.452 38.487 124.997 39.245 124.641 39.799 124.384 40.348 124.13 40.698 123.964 40.851 123.887V123.887C41.084 123.769 41.261 123.657 41.384 123.549V123.549C41.442 123.481 41.429 123.288 41.344 122.969 41.257 122.644 41.181 122.417 41.116 122.289V122.289C41.094 122.246 41.151 122.19 41.286 122.122V122.122C41.39 122.07 41.471 122.056 41.529 122.08V122.08C41.598 122.245 41.677 122.425 41.766 122.617 41.853 122.82 41.934 123.002 42.008 123.164 42.076 123.329 42.158 123.507 42.254 123.697ZM48.566 135.241V135.241C48.799 135.554 49.11 135.926 49.499 136.355V136.355C49.351 136.559 47.859 138.976 45.022 143.607V143.607C45.004 143.629 45.005 143.654 45.025 143.681V143.681C45.05 143.714 45.086 143.722 45.132 143.704V143.704C47.689 143.082 49.78 142.546 51.404 142.097V142.097C51.404 142.097 52.04 141.888 53.312 141.471V141.471C53.681 142.034 53.927 142.399 54.05 142.564V142.564C54.439 143.086 54.808 143.547 55.157 143.946V143.946C55.096 144.025 55.041 144.083 54.992 144.12V144.12C54.871 144.21 54.796 144.236 54.767 144.198V144.198L54.749 144.173C54.679 144.08 54.559 143.976 54.39 143.863 54.22 143.75 54.079 143.676 53.966 143.64V143.64C53.815 143.598 53.495 143.76 53.006 144.125V144.125C52.868 144.227 51.178 145.547 47.935 148.084V148.084C47.461 148.446 47.12 148.799 46.913 149.141V149.141C46.861 149.231 46.889 149.407 46.998 149.668 47.107 149.929 47.196 150.106 47.266 150.2V150.2C47.291 150.233 47.242 150.295 47.121 150.385V150.385C47.05 150.438 46.981 150.477 46.913 150.501V150.501C46.326 149.622 45.973 149.102 45.854 148.942V148.942C45.821 148.898 45.422 148.409 44.656 147.473V147.473C44.666 147.406 44.72 147.336 44.819 147.262V147.262C44.929 147.18 44.999 147.158 45.027 147.197V147.197C45.089 147.279 45.205 147.389 45.376 147.527 45.546 147.674 45.682 147.77 45.783 147.814V147.814C45.917 147.868 46.136 147.782 46.438 147.557V147.557L47.115 147.053 51.468 143.577C51.597 143.463 51.738 143.32 51.891 143.146 52.044 142.972 52.106 142.866 52.077 142.827V142.827C52.065 142.811 52.018 142.811 51.937 142.829V142.829L43.618 144.91C43.132 145.016 42.834 144.994 42.723 144.846V144.846C42.703 144.818 42.682 144.773 42.662 144.712V144.712L47.881 136.303C47.055 136.893 46.107 137.561 45.037 138.307 43.958 139.052 43.069 139.668 42.371 140.154 41.668 140.635 41.308 140.882 41.292 140.894V140.894C41.143 141.005 41.052 141.111 41.017 141.214 40.992 141.318 41.046 141.522 41.178 141.826 41.301 142.128 41.395 142.323 41.46 142.411V142.411C41.485 142.444 41.434 142.508 41.307 142.602V142.602C41.241 142.651 41.175 142.688 41.107 142.713V142.713C40.52 141.833 40.177 141.327 40.079 141.195V141.195C40.062 141.173 39.671 140.694 38.906 139.759V139.759C38.917 139.682 38.964 139.613 39.046 139.551V139.551C39.167 139.461 39.244 139.438 39.277 139.482V139.482C39.363 139.598 39.52 139.75 39.747 139.94 39.978 140.136 40.161 140.244 40.296 140.263V140.263C40.542 140.284 40.966 140.084 41.567 139.662V139.662C42.454 139.026 43.335 138.4 44.209 137.782 45.078 137.169 45.764 136.688 46.266 136.339 46.762 135.995 47.079 135.772 47.216 135.669V135.669C47.425 135.513 47.581 135.372 47.683 135.244V135.244C47.728 135.168 47.682 134.98 47.544 134.68 47.403 134.375 47.289 134.165 47.203 134.049V134.049C47.174 134.011 47.22 133.946 47.341 133.856V133.856C47.435 133.787 47.512 133.759 47.574 133.773V133.773C47.669 133.924 47.778 134.087 47.9 134.261 48.02 134.445 48.131 134.611 48.232 134.758 48.327 134.909 48.439 135.07 48.566 135.241ZM50.377 150.987L54.842 146.782C55.322 146.33 55.64 145.983 55.798 145.74V145.74C55.834 145.659 55.786 145.497 55.652 145.255 55.519 145.014 55.405 144.843 55.311 144.743V144.743C55.278 144.708 55.312 144.643 55.412 144.549V144.549C55.506 144.46 55.585 144.419 55.648 144.425V144.425C56.436 145.342 56.849 145.82 56.886 145.86V145.86C57.004 145.985 57.443 146.411 58.202 147.137V147.137C58.176 147.2 58.128 147.264 58.058 147.329V147.329C57.948 147.433 57.877 147.467 57.844 147.432V147.432C57.773 147.357 57.619 147.244 57.381 147.091 57.138 146.943 56.982 146.887 56.913 146.924V146.924C56.577 147.108 56.187 147.409 55.743 147.828V147.828L51.368 151.948C50.923 152.367 50.599 152.738 50.395 153.062V153.062C50.354 153.129 50.403 153.285 50.541 153.532 50.679 153.779 50.784 153.94 50.854 154.015V154.015C50.887 154.05 50.846 154.121 50.731 154.23V154.23C50.671 154.286 50.607 154.328 50.538 154.355V154.355C49.859 153.553 49.46 153.09 49.342 152.965V152.965C49.305 152.925 48.852 152.484 47.984 151.643V151.643C47.986 151.575 48.027 151.503 48.107 151.428V151.428C48.217 151.325 48.289 151.29 48.321 151.325V151.325C48.416 151.425 48.577 151.551 48.805 151.704 49.034 151.856 49.192 151.914 49.28 151.878V151.878C49.532 151.735 49.898 151.438 50.377 150.987ZM60.092 158.155L63.311 154.436C63.733 153.948 64.008 153.574 64.135 153.311V153.311C64.168 153.231 64.085 153.05 63.884 152.768 63.685 152.495 63.533 152.314 63.429 152.224V152.224C63.398 152.197 63.423 152.137 63.504 152.044 63.585 151.95 63.654 151.902 63.712 151.897V151.897C63.807 151.998 64.003 152.19 64.301 152.475 64.594 152.765 64.847 153.002 65.06 153.187V153.187C65.267 153.366 65.538 153.583 65.873 153.836 66.212 154.084 66.41 154.232 66.467 154.282V154.282C66.442 154.342 66.398 154.408 66.335 154.481V154.481C66.25 154.58 66.191 154.615 66.16 154.588V154.588C66.077 154.517 65.877 154.397 65.558 154.23 65.235 154.059 65.04 153.995 64.975 154.039V154.039C64.698 154.234 64.345 154.578 63.919 155.071V155.071L59.985 159.614C59.554 160.112 59.08 160.682 58.562 161.322V161.322C58.504 161.326 58.415 161.277 58.296 161.173V161.173C58.161 161.057 58.109 160.849 58.141 160.55V160.55L59.196 149.961 54.777 155.065C54.319 155.594 54.027 155.99 53.9 156.252V156.252C53.866 156.322 53.949 156.494 54.148 156.766 54.348 157.049 54.487 157.223 54.565 157.291V157.291C54.591 157.313 54.564 157.371 54.483 157.464 54.403 157.567 54.337 157.633 54.286 157.661V157.661C53.523 156.928 53.082 156.51 52.962 156.407V156.407L51.531 155.277C51.533 155.233 51.574 155.164 51.655 155.071V155.071C51.754 154.957 51.814 154.909 51.834 154.927V154.927C51.948 155.025 52.157 155.151 52.46 155.305 52.763 155.468 52.957 155.522 53.041 155.467V155.467C53.303 155.331 53.668 154.994 54.135 154.454V154.454L58.21 149.747C58.547 149.358 58.776 149.035 58.899 148.779V148.779C58.927 148.694 58.841 148.52 58.643 148.257 58.438 147.99 58.282 147.809 58.173 147.715V147.715C58.137 147.683 58.163 147.616 58.253 147.512 58.339 147.413 58.413 147.364 58.476 147.364V147.364C59.08 147.914 59.478 148.272 59.67 148.439V148.439C60.085 148.798 60.41 149.066 60.647 149.244V149.244C60.471 150.044 60.132 153.172 59.63 158.626V158.626C59.772 158.504 59.926 158.347 60.092 158.155ZM62.936 161.948L66.488 156.948C66.87 156.411 67.114 156.008 67.221 155.739V155.739C67.241 155.652 67.161 155.503 66.983 155.292 66.804 155.081 66.659 154.936 66.548 154.856V154.856C66.508 154.829 66.529 154.759 66.608 154.647V154.647C66.683 154.541 66.753 154.485 66.816 154.479V154.479C67.768 155.223 68.267 155.611 68.312 155.643V155.643C68.451 155.742 68.965 156.073 69.853 156.636V156.636C69.839 156.703 69.805 156.775 69.749 156.853V156.853C69.662 156.976 69.598 157.024 69.559 156.996V156.996C69.475 156.936 69.302 156.855 69.038 156.752 68.771 156.655 68.607 156.631 68.546 156.68V156.68C68.254 156.927 67.93 157.299 67.577 157.797V157.797L64.096 162.696C63.742 163.194 63.497 163.621 63.361 163.979V163.979C63.334 164.052 63.413 164.197 63.597 164.411 63.781 164.626 63.915 164.764 63.999 164.823V164.823C64.038 164.851 64.012 164.929 63.92 165.058V165.058C63.872 165.125 63.818 165.179 63.755 165.219V165.219C62.932 164.566 62.45 164.19 62.31 164.091V164.091C62.265 164.059 61.735 163.716 60.719 163.061V163.061C60.707 162.994 60.733 162.916 60.797 162.826V162.826C60.884 162.703 60.948 162.656 60.987 162.683V162.683C61.099 162.763 61.282 162.855 61.535 162.96 61.789 163.064 61.956 163.09 62.036 163.037V163.037C62.254 162.848 62.555 162.485 62.936 161.948ZM69.367 159.517V159.517C69.788 158.817 70.4 158.405 71.203 158.279 72.001 158.151 72.753 158.298 73.459 158.722V158.722C73.659 158.842 73.84 158.967 74.002 159.097 74.164 159.226 74.294 159.336 74.392 159.427 74.486 159.523 74.624 159.667 74.806 159.856 74.983 160.042 75.14 160.2 75.277 160.331V160.331C75.103 160.875 74.77 161.555 74.279 162.372V162.372C74.24 162.437 74.173 162.441 74.079 162.385V162.385C73.868 162.257 73.778 162.14 73.811 162.032V162.032C74.007 161.613 74.047 161.113 73.932 160.531 73.817 159.95 73.516 159.513 73.028 159.22V159.22C72.487 158.894 72.023 158.8 71.637 158.936 71.257 159.076 70.947 159.346 70.707 159.746V159.746C70.604 159.916 70.538 160.1 70.507 160.298 70.47 160.492 70.452 160.662 70.454 160.806 70.458 160.945 70.502 161.132 70.586 161.366 70.675 161.604 70.74 161.775 70.781 161.88 70.826 161.978 70.92 162.167 71.065 162.446 71.206 162.731 71.298 162.911 71.342 162.985V162.985C71.371 163.042 71.471 163.235 71.643 163.562 71.811 163.895 71.926 164.124 71.987 164.249 72.044 164.379 72.126 164.597 72.232 164.9 72.337 165.204 72.397 165.451 72.409 165.643 72.422 165.835 72.413 166.057 72.381 166.31 72.345 166.569 72.262 166.807 72.131 167.025V167.025C71.697 167.748 71.058 168.173 70.214 168.298 69.364 168.42 68.56 168.253 67.802 167.797V167.797C67.584 167.666 67.364 167.514 67.14 167.339 66.911 167.162 66.727 167.007 66.59 166.877 66.443 166.748 66.264 166.58 66.052 166.373 65.834 166.163 65.681 166.018 65.592 165.941V165.941C66.036 164.695 66.357 163.907 66.555 163.578V163.578C66.587 163.525 66.676 163.543 66.823 163.631V163.631C66.982 163.727 67.069 163.835 67.084 163.956V163.956C66.609 165.439 66.968 166.54 68.162 167.257V167.257C68.615 167.529 69.081 167.625 69.561 167.546 70.041 167.466 70.43 167.179 70.727 166.685V166.685C70.836 166.503 70.911 166.319 70.949 166.135 70.986 165.941 71.003 165.779 71.001 165.649 71.002 165.514 70.965 165.343 70.888 165.138 70.808 164.937 70.743 164.786 70.693 164.684 70.642 164.581 70.544 164.406 70.397 164.158 70.25 163.909 70.149 163.737 70.095 163.64V163.64C69.928 163.332 69.811 163.114 69.744 162.985 69.677 162.857 69.572 162.646 69.429 162.352 69.283 162.048 69.192 161.801 69.154 161.61 69.122 161.423 69.086 161.197 69.045 160.932 69.01 160.671 69.023 160.423 69.084 160.188 69.146 159.952 69.24 159.729 69.367 159.517ZM79.108 161.786C79.754 162.105 80.289 162.361 80.714 162.555 81.138 162.749 81.685 162.988 82.355 163.271 83.025 163.555 83.541 163.78 83.903 163.945V163.945C84.146 164.056 84.501 164.155 84.967 164.24V164.24L84.307 166.427C84.207 166.464 84.075 166.446 83.913 166.372V166.372C83.826 166.332 83.787 166.284 83.798 166.228V166.228C83.912 165.632 83.905 165.21 83.777 164.963 83.658 164.712 83.323 164.461 82.774 164.21V164.21C81.757 163.745 81.197 163.576 81.094 163.702V163.702C80.864 163.974 80.601 164.434 80.304 165.083V165.083L77.929 170.277C77.675 170.833 77.515 171.299 77.448 171.676V171.676C77.435 171.753 77.539 171.88 77.761 172.056 77.982 172.233 78.139 172.342 78.232 172.385V172.385C78.276 172.405 78.265 172.487 78.2 172.63V172.63C78.165 172.705 78.125 172.77 78.077 172.823V172.823C77.139 172.334 76.592 172.054 76.436 171.982V171.982C76.386 171.96 75.801 171.722 74.68 171.27V171.27C74.663 171.209 74.677 171.129 74.722 171.029V171.029C74.785 170.892 74.835 170.832 74.873 170.849V170.849C74.997 170.906 75.194 170.962 75.463 171.017 75.732 171.072 75.901 171.066 75.969 170.999V170.999C76.149 170.772 76.375 170.359 76.649 169.76V169.76L79.029 164.557C79.411 163.721 79.597 163.206 79.588 163.013V163.013C79.572 162.832 79.087 162.524 78.132 162.087V162.087C77.583 161.836 77.172 161.746 76.898 161.817 76.633 161.885 76.31 162.155 75.927 162.629V162.629C75.898 162.676 75.84 162.68 75.753 162.64V162.64C75.59 162.566 75.491 162.478 75.453 162.378V162.378L76.666 160.444C77.042 160.744 77.348 160.948 77.586 161.056V161.056C77.954 161.225 78.461 161.468 79.108 161.786ZM88.85 166.334V166.334C88.398 166.194 88.036 166.121 87.765 166.116V166.116C87.724 166.111 87.68 166.137 87.633 166.194 87.587 166.251 87.52 166.396 87.434 166.628 87.342 166.858 87.218 167.222 87.064 167.72V167.72L86.499 169.549C86.409 169.837 86.804 170.117 87.682 170.389V170.389L88.056 170.504C88.41 170.614 88.83 170.554 89.318 170.324 89.808 170.088 90.143 169.678 90.323 169.094V169.094C90.757 167.692 90.266 166.772 88.85 166.334ZM89.303 165.741V165.741C89.644 165.847 89.975 166.006 90.296 166.221 90.62 166.429 90.921 166.687 91.199 166.995 91.479 167.297 91.672 167.67 91.78 168.112 91.887 168.555 91.863 169.025 91.709 169.523V169.523C91.58 169.943 91.285 170.336 90.827 170.704 90.362 171.07 89.819 171.294 89.198 171.375V171.375C89.087 171.383 89.042 171.423 89.064 171.495V171.495C89.24 172.713 89.545 173.78 89.979 174.697V174.697C90.616 176.05 91.24 176.821 91.849 177.01V177.01C91.855 177.084 91.846 177.16 91.822 177.238V177.238C91.793 177.33 91.757 177.401 91.712 177.452V177.452C91.591 177.451 91.448 177.424 91.284 177.374V177.374C89.875 176.938 88.875 175.831 88.283 174.054V174.054C88.194 173.782 88.092 173.463 87.975 173.097 87.867 172.726 87.786 172.457 87.73 172.289 87.681 172.123 87.615 171.941 87.533 171.743 87.459 171.54 87.388 171.386 87.321 171.279 87.249 171.163 87.164 171.065 87.067 170.985V170.985C86.97 170.904 86.79 170.824 86.528 170.743V170.743C86.449 170.718 86.389 170.703 86.348 170.698 86.306 170.692 86.257 170.702 86.199 170.727 86.147 170.754 86.108 170.81 86.082 170.895V170.895L85.395 173.117C85.186 173.792 85.094 174.241 85.118 174.464V174.464C85.123 174.61 85.267 174.772 85.548 174.953 85.832 175.127 86.04 175.234 86.171 175.275V175.275C86.21 175.287 86.207 175.365 86.163 175.509V175.509C86.136 175.594 86.103 175.667 86.063 175.726V175.726C85.07 175.362 84.423 175.133 84.121 175.039V175.039L82.259 174.549C82.236 174.506 82.248 174.41 82.295 174.259V174.259C82.335 174.128 82.372 174.067 82.405 174.077V174.077C82.542 174.12 82.748 174.151 83.022 174.171 83.291 174.183 83.465 174.154 83.544 174.085V174.085C83.648 173.981 83.828 173.516 84.083 172.69V172.69L85.85 166.978C86.035 166.382 86.136 165.939 86.153 165.65V165.65C86.147 165.555 86.02 165.433 85.771 165.284 85.531 165.131 85.346 165.034 85.215 164.993V164.993C85.169 164.979 85.165 164.91 85.204 164.785V164.785C85.244 164.654 85.294 164.576 85.352 164.551V164.551L87.151 165.14C87.453 165.233 87.813 165.334 88.232 165.442 88.651 165.55 89.008 165.65 89.303 165.741ZM99.391 168.104L99.526 168.169 101.208 176.946C101.306 177.465 101.389 177.866 101.457 178.15V178.15C101.498 178.317 101.638 178.47 101.878 178.61 102.117 178.756 102.301 178.84 102.43 178.863V178.863C102.47 178.87 102.473 178.972 102.439 179.168V179.168C102.432 179.208 102.412 179.26 102.38 179.324V179.324C101.349 179.088 100.783 178.961 100.681 178.944V178.944C100.668 178.941 100.058 178.862 98.853 178.707V178.707C98.82 178.653 98.819 178.562 98.848 178.435 98.877 178.308 98.912 178.248 98.953 178.255V178.255C99.074 178.276 99.234 178.276 99.433 178.255 99.631 178.241 99.751 178.192 99.793 178.109V178.109C99.834 178.033 99.862 177.954 99.876 177.873V177.873C99.9 177.738 99.907 177.575 99.899 177.386 99.897 177.198 99.888 177.05 99.872 176.942V176.942L99.841 176.759 99.511 174.884C99.484 174.837 99.457 174.812 99.43 174.807V174.807C99.031 174.702 98.638 174.616 98.253 174.549V174.549C97.713 174.454 97.049 174.366 96.262 174.284V174.284L96.174 174.311 95.204 175.917C94.938 176.4 94.788 176.743 94.752 176.945V176.945C94.727 177.087 94.75 177.196 94.821 177.271V177.271C94.902 177.362 95.044 177.449 95.245 177.533 95.439 177.616 95.584 177.665 95.678 177.682V177.682C95.712 177.688 95.718 177.752 95.697 177.873 95.681 178.003 95.659 178.093 95.629 178.143V178.143C94.598 177.907 94.069 177.787 94.042 177.782V177.782C93.832 177.745 93.649 177.717 93.492 177.696 93.335 177.683 93.157 177.666 92.958 177.645 92.768 177.618 92.584 177.597 92.405 177.579V177.579C92.373 177.525 92.367 177.444 92.385 177.336V177.336C92.411 177.187 92.445 177.116 92.485 177.123V177.123C92.607 177.145 92.774 177.146 92.986 177.127 93.19 177.114 93.338 177.067 93.429 176.985V176.985C93.695 176.739 94.024 176.292 94.416 175.643V175.643L98.341 169.153C98.37 169.102 98.415 169.023 98.476 168.915 98.53 168.806 98.572 168.726 98.602 168.676 98.631 168.625 98.678 168.557 98.742 168.471 98.798 168.39 98.843 168.332 98.877 168.296 98.918 168.261 98.967 168.221 99.023 168.175 99.079 168.136 99.136 168.111 99.193 168.1 99.258 168.091 99.324 168.092 99.391 168.104ZM96.737 173.479V173.479C97.275 173.594 97.641 173.669 97.837 173.703V173.703C98.297 173.783 98.772 173.853 99.263 173.911V173.911L99.328 173.839 98.664 170.17 96.718 173.413C96.711 173.454 96.717 173.476 96.737 173.479ZM107.035 169.141V169.141L108.762 169.23C109.495 169.268 110.604 169.274 112.089 169.248V169.248C112.116 169.257 112.147 169.327 112.181 169.459 112.209 169.584 112.221 169.691 112.216 169.78V169.78L105.851 178.271C105.77 178.377 105.728 178.454 105.726 178.502V178.502C105.72 178.612 105.793 178.67 105.943 178.678V178.678L109.509 178.863C109.886 178.882 110.215 178.841 110.495 178.739 110.775 178.643 111.01 178.484 111.2 178.26 111.383 178.043 111.519 177.857 111.61 177.704 111.693 177.557 111.797 177.346 111.921 177.071V177.071C111.943 177.038 112.016 177.024 112.139 177.031V177.031C112.297 177.039 112.421 177.094 112.512 177.194V177.194C112.12 178.273 111.841 179.135 111.678 179.779V179.779L103.846 179.373C103.762 179.273 103.725 179.133 103.734 178.955V178.955C103.74 178.832 103.769 178.744 103.82 178.692V178.692L110.325 170.074 106.985 169.901C106.286 169.865 105.779 169.983 105.462 170.255 105.146 170.534 104.869 171.031 104.633 171.747V171.747C104.624 171.788 104.572 171.806 104.476 171.801V171.801C104.229 171.788 104.064 171.732 103.979 171.631V171.631C104.328 170.337 104.548 169.418 104.638 168.873V168.873C104.745 168.913 105.127 168.967 105.783 169.035 106.44 169.096 106.857 169.132 107.035 169.141ZM114.647 177.592L114.449 171.461C114.428 170.803 114.378 170.335 114.301 170.056V170.056C114.264 169.975 114.11 169.904 113.841 169.844 113.571 169.784 113.368 169.756 113.23 169.761V169.761C113.182 169.762 113.156 169.695 113.152 169.557V169.557C113.148 169.427 113.169 169.341 113.216 169.298V169.298C114.424 169.314 115.056 169.321 115.111 169.319V169.319C115.282 169.314 115.892 169.266 116.939 169.178V169.178C116.968 169.238 116.985 169.317 116.988 169.413V169.413C116.993 169.564 116.971 169.64 116.923 169.641V169.641C116.82 169.645 116.633 169.685 116.361 169.763 116.089 169.847 115.944 169.927 115.926 170.003V170.003C115.842 170.377 115.809 170.868 115.829 171.479V171.479L116.023 177.485C116.043 178.096 116.107 178.584 116.215 178.952V178.952C116.238 179.026 116.388 179.094 116.664 179.153 116.941 179.213 117.13 179.241 117.233 179.238V179.238C117.281 179.236 117.308 179.314 117.313 179.472V179.472C117.316 179.554 117.304 179.63 117.279 179.7V179.7C116.228 179.679 115.617 179.671 115.446 179.677V179.677C115.391 179.678 114.761 179.726 113.556 179.82V179.82C113.506 179.774 113.48 179.695 113.476 179.586V179.586C113.471 179.435 113.493 179.359 113.541 179.357V179.357C113.678 179.353 113.879 179.315 114.145 179.245 114.41 179.175 114.558 179.094 114.59 179.004V179.004C114.649 178.721 114.668 178.25 114.647 177.592ZM122.424 169.043V169.043C121.431 169.173 120.702 169.712 120.238 170.658 119.78 171.597 119.626 172.638 119.776 173.78V173.78C119.885 174.617 120.125 175.388 120.494 176.094 120.863 176.8 121.366 177.364 122.002 177.785 122.646 178.206 123.355 178.366 124.131 178.264V178.264C124.797 178.177 125.354 177.883 125.8 177.381 126.247 176.887 126.544 176.301 126.691 175.625 126.845 174.954 126.874 174.251 126.778 173.517V173.517C126.668 172.68 126.429 171.909 126.06 171.203 125.691 170.504 125.185 169.944 124.542 169.523 123.906 169.102 123.2 168.942 122.424 169.043ZM120.22 177.884C119.112 176.978 118.462 175.793 118.27 174.331 118.078 172.861 118.399 171.542 119.236 170.374 120.079 169.205 121.191 168.53 122.572 168.349 123.953 168.168 125.205 168.534 126.327 169.445 127.443 170.357 128.098 171.548 128.29 173.018 128.482 174.48 128.155 175.793 127.311 176.955 126.461 178.118 125.345 178.79 123.964 178.971 122.583 179.152 121.335 178.79 120.22 177.884ZM137.618 172.278L136.294 167.54C136.121 166.919 135.96 166.483 135.812 166.233V166.233C135.763 166.161 135.566 166.13 135.22 166.142 134.883 166.157 134.648 166.184 134.516 166.221V166.221C134.476 166.232 134.44 166.178 134.406 166.059 134.373 165.94 134.371 165.855 134.399 165.804V165.804C134.535 165.781 134.804 165.723 135.206 165.633 135.61 165.548 135.947 165.468 136.218 165.393V165.393C136.483 165.319 136.813 165.212 137.208 165.073 137.602 164.928 137.835 164.845 137.908 164.825V164.825C137.944 164.878 137.976 164.952 138.001 165.044V165.044C138.036 165.17 138.034 165.238 137.995 165.249V165.249C137.889 165.279 137.679 165.38 137.364 165.554 137.042 165.729 136.882 165.856 136.882 165.934V165.934C136.891 166.273 136.984 166.757 137.159 167.384V167.384L138.776 173.173C138.953 173.807 139.165 174.517 139.413 175.302V175.302C139.385 175.353 139.294 175.4 139.142 175.442V175.442C138.971 175.49 138.769 175.418 138.537 175.227V175.227L130.291 168.501 132.107 175.003C132.295 175.677 132.463 176.139 132.612 176.39V176.39C132.652 176.457 132.841 176.483 133.178 176.467 133.524 176.456 133.747 176.436 133.846 176.409V176.409C133.879 176.399 133.912 176.454 133.945 176.573 133.987 176.697 134.005 176.788 134 176.846V176.846C132.968 177.078 132.375 177.215 132.223 177.257V177.257L130.491 177.826C130.456 177.801 130.421 177.728 130.388 177.609V177.609C130.347 177.464 130.34 177.388 130.367 177.38V177.38C130.512 177.34 130.732 177.235 131.027 177.068 131.331 176.904 131.483 176.773 131.483 176.673V176.673C131.515 176.379 131.435 175.889 131.243 175.202V175.202L129.569 169.205C129.43 168.709 129.288 168.34 129.141 168.096V168.096C129.086 168.026 128.894 168.001 128.565 168.022 128.229 168.044 127.992 168.075 127.853 168.113V168.113C127.807 168.126 127.766 168.067 127.729 167.935 127.694 167.809 127.694 167.72 127.729 167.667V167.667C128.521 167.468 129.039 167.334 129.283 167.265V167.265C129.812 167.118 130.216 166.994 130.494 166.895V166.895C131.065 167.484 133.485 169.493 137.755 172.923V172.923C137.732 172.738 137.686 172.523 137.618 172.278ZM139.728 164.112V164.112C140.165 163.93 140.917 163.594 141.984 163.105 143.045 162.619 143.848 162.262 144.392 162.036V162.036C144.555 162.302 144.787 162.644 145.087 163.062 145.394 163.476 145.58 163.737 145.647 163.843V163.843C145.617 163.915 145.539 163.977 145.412 164.03 145.286 164.083 145.205 164.075 145.169 164.008V164.008C144.799 163.531 144.451 163.274 144.124 163.24 143.801 163.196 143.409 163.27 142.946 163.462V163.462L141.968 163.87C141.132 164.218 140.731 164.459 140.765 164.594V164.594C140.812 164.849 140.956 165.268 141.199 165.851V165.851L142.172 168.188C142.196 168.245 142.417 168.187 142.835 168.013V168.013L143.614 167.688C143.886 167.575 144.082 167.493 144.203 167.443 144.323 167.393 144.445 167.32 144.568 167.224 144.692 167.128 144.77 167.065 144.803 167.037 144.838 167.015 144.862 166.93 144.876 166.784 144.892 166.643 144.891 166.543 144.873 166.484 144.865 166.428 144.843 166.277 144.808 166.032V166.032C144.791 165.957 144.85 165.892 144.983 165.836V165.836C145.103 165.786 145.196 165.777 145.261 165.809V165.809L146.409 168.564C146.386 168.618 146.318 168.669 146.204 168.716V168.716C146.078 168.769 145.983 168.764 145.919 168.701V168.701C145.742 168.47 145.603 168.298 145.503 168.183 145.397 168.071 145.326 168.008 145.29 167.993 145.254 167.979 145.2 167.964 145.127 167.95V167.95C144.969 167.927 144.437 168.103 143.531 168.481V168.481C142.828 168.773 142.495 168.964 142.532 169.053V169.053L143.474 171.314C143.737 171.947 143.966 172.372 144.16 172.588V172.588C144.232 172.67 144.584 172.579 145.217 172.315V172.315L145.92 172.023C146.826 171.646 147.403 171.309 147.651 171.012V171.012C147.765 170.876 147.858 170.636 147.931 170.293 147.995 169.947 148.005 169.568 147.959 169.156V169.156C147.955 169.091 148.012 169.034 148.133 168.983V168.983C148.316 168.907 148.449 168.885 148.529 168.919V168.919C148.531 169.066 148.54 169.301 148.554 169.622 148.569 169.942 148.582 170.197 148.594 170.385 148.608 170.58 148.628 170.806 148.653 171.063 148.676 171.314 148.708 171.516 148.75 171.669V171.669C148.256 171.875 147.469 172.191 146.391 172.618 145.307 173.047 144.425 173.403 143.748 173.685V173.685L142.001 174.469C141.956 174.45 141.907 174.378 141.854 174.251 141.801 174.124 141.791 174.054 141.823 174.041V174.041C141.949 173.988 142.122 173.876 142.34 173.703 142.557 173.531 142.675 173.393 142.691 173.289V173.289C142.711 173.14 142.554 172.666 142.222 171.868V171.868L139.924 166.349C139.684 165.772 139.475 165.369 139.297 165.138V165.138C139.231 165.069 139.055 165.057 138.769 165.102 138.486 165.138 138.282 165.182 138.155 165.235V165.235C138.117 165.25 138.073 165.198 138.023 165.078V165.078C137.97 164.951 137.955 164.861 137.977 164.807V164.807C138.492 164.615 139.075 164.383 139.728 164.112ZM148.723 159.938L150.361 158.989C150.632 158.826 150.947 158.624 151.307 158.384 151.666 158.144 151.979 157.944 152.243 157.785V157.785C152.543 157.604 152.871 157.471 153.227 157.385 153.586 157.289 153.962 157.248 154.353 157.26 154.748 157.263 155.134 157.379 155.511 157.609 155.895 157.834 156.222 158.17 156.49 158.617V158.617C156.646 158.876 156.76 159.192 156.832 159.564 156.9 159.931 156.913 160.324 156.868 160.743 156.82 161.156 156.671 161.566 156.42 161.974 156.159 162.379 155.802 162.717 155.349 162.99V162.99C154.844 163.294 154.421 163.376 154.081 163.236V163.236C153.989 163.204 153.912 163.109 153.851 162.954V162.954C153.841 162.912 153.847 162.888 153.868 162.884V162.884C154.199 162.821 154.532 162.689 154.867 162.487V162.487C155.32 162.215 155.593 161.791 155.686 161.214 155.789 160.64 155.683 160.091 155.369 159.568V159.568C154.98 158.921 154.533 158.497 154.028 158.297 153.519 158.09 152.971 158.164 152.383 158.517V158.517C151.978 158.761 151.683 158.983 151.498 159.182V159.182C151.455 159.216 151.442 159.268 151.459 159.337 151.477 159.406 151.545 159.553 151.665 159.778 151.778 160.006 151.965 160.338 152.227 160.773V160.773L155.138 165.614C155.503 166.22 155.776 166.588 155.958 166.718V166.718C156.07 166.811 156.287 166.813 156.61 166.723 156.928 166.627 157.147 166.544 157.264 166.473V166.473C157.299 166.452 157.356 166.506 157.434 166.636V166.636C157.48 166.712 157.512 166.785 157.529 166.854V166.854C156.596 167.352 155.994 167.682 155.723 167.844V167.844L154.116 168.907C154.069 168.895 154.005 168.822 153.924 168.686V168.686C153.853 168.569 153.832 168.501 153.862 168.484V168.484C153.985 168.409 154.146 168.277 154.343 168.086 154.531 167.893 154.626 167.744 154.627 167.639V167.639C154.624 167.489 154.4 167.043 153.955 166.302V166.302L150.874 161.178C150.552 160.643 150.286 160.275 150.076 160.073V160.073C150.001 160.014 149.825 160.027 149.549 160.114 149.275 160.19 149.079 160.264 148.961 160.335V160.335C148.926 160.356 148.875 160.311 148.808 160.199V160.199C148.737 160.082 148.709 159.994 148.723 159.938ZM161.319 161.763L157.737 156.784C157.353 156.249 157.051 155.888 156.831 155.7V155.7C156.755 155.653 156.588 155.68 156.331 155.78 156.074 155.881 155.889 155.971 155.778 156.051V156.051C155.739 156.079 155.679 156.038 155.599 155.926V155.926C155.523 155.82 155.492 155.737 155.507 155.675V155.675C156.52 155.015 157.048 154.669 157.093 154.637V154.637C157.232 154.536 157.712 154.158 158.532 153.5V153.5C158.59 153.534 158.647 153.59 158.703 153.668V153.668C158.791 153.791 158.816 153.866 158.777 153.894V153.894C158.693 153.954 158.56 154.092 158.378 154.308 158.199 154.53 158.123 154.677 158.151 154.75V154.75C158.289 155.107 158.536 155.533 158.893 156.029V156.029L162.402 160.908C162.758 161.404 163.084 161.774 163.378 162.019V162.019C163.439 162.068 163.601 162.04 163.864 161.936 164.126 161.831 164.3 161.749 164.383 161.689V161.689C164.422 161.661 164.488 161.711 164.58 161.839V161.839C164.628 161.906 164.661 161.975 164.679 162.047V162.047C163.794 162.615 163.283 162.949 163.143 163.049V163.049C163.099 163.081 162.603 163.472 161.654 164.222V164.222C161.587 164.211 161.522 164.161 161.458 164.072V164.072C161.37 163.949 161.345 163.874 161.384 163.846V163.846C161.495 163.766 161.642 163.623 161.823 163.416 162.004 163.21 162.082 163.06 162.058 162.968V162.968C161.95 162.7 161.703 162.298 161.319 161.763ZM161.188 151.245C161.744 150.786 162.197 150.402 162.548 150.095 162.899 149.788 163.341 149.387 163.874 148.892 164.408 148.397 164.824 148.019 165.123 147.756V147.756C165.325 147.58 165.56 147.297 165.829 146.906V146.906L167.553 148.405C167.546 148.512 167.475 148.624 167.341 148.742V148.742C167.269 148.805 167.209 148.82 167.163 148.788V148.788C166.666 148.439 166.278 148.273 166 148.288 165.722 148.294 165.357 148.496 164.902 148.894V148.894C164.061 149.631 163.677 150.072 163.75 150.218V150.218C163.904 150.54 164.216 150.969 164.686 151.505V151.505L168.45 155.801C168.852 156.26 169.212 156.598 169.528 156.813V156.813C169.593 156.856 169.752 156.813 170.003 156.684 170.255 156.555 170.419 156.456 170.497 156.388V156.388C170.533 156.357 170.603 156.4 170.707 156.519V156.519C170.761 156.581 170.803 156.644 170.833 156.71V156.71C170.002 157.364 169.522 157.748 169.393 157.861V157.861C169.352 157.898 168.895 158.334 168.023 159.171V159.171C167.961 159.162 167.893 159.116 167.821 159.034V159.034C167.721 158.92 167.687 158.85 167.718 158.823V158.823C167.821 158.732 167.953 158.576 168.114 158.353 168.274 158.13 168.338 157.974 168.305 157.884V157.884C168.171 157.628 167.887 157.252 167.453 156.756V156.756L163.683 152.453C163.077 151.761 162.684 151.38 162.504 151.31V151.31C162.333 151.25 161.853 151.566 161.063 152.258V152.258C160.609 152.656 160.358 152.994 160.311 153.273 160.264 153.542 160.378 153.948 160.653 154.491V154.491C160.684 154.537 160.664 154.592 160.591 154.655V154.655C160.457 154.773 160.337 154.828 160.23 154.821V154.821L158.963 152.921C159.391 152.702 159.703 152.506 159.899 152.334V152.334C160.203 152.067 160.633 151.704 161.188 151.245ZM169.857 143.403V143.403C169.195 144.154 169.001 145.039 169.275 146.057 169.548 147.066 170.117 147.951 170.982 148.712V148.712C171.616 149.27 172.304 149.693 173.046 149.981 173.789 150.269 174.539 150.362 175.295 150.26 176.056 150.154 176.695 149.807 177.212 149.22V149.22C177.657 148.715 177.882 148.127 177.887 147.456 177.898 146.789 177.736 146.153 177.401 145.547 177.076 144.941 176.635 144.393 176.079 143.903V143.903C175.446 143.346 174.758 142.923 174.015 142.635 173.278 142.351 172.528 142.263 171.767 142.37 171.01 142.471 170.374 142.816 169.857 143.403ZM174.018 151.508C172.588 151.556 171.318 151.092 170.211 150.117 169.099 149.138 168.473 147.934 168.333 146.504 168.198 145.069 168.591 143.828 169.511 142.783 170.431 141.738 171.614 141.188 173.059 141.135 174.5 141.087 175.776 141.553 176.889 142.532 177.996 143.507 178.614 144.709 178.744 146.14 178.87 147.576 178.472 148.816 177.552 149.862 176.632 150.907 175.454 151.456 174.018 151.508ZM184.528 135.088L184.616 135.048C184.713 135.112 185.005 135.398 185.492 135.904 185.989 136.408 186.234 136.696 186.229 136.766V136.766C186.181 137.666 185.672 138.844 184.701 140.299V140.299C183.928 141.458 182.847 142.159 181.456 142.402 180.065 142.646 178.781 142.375 177.606 141.591V141.591C176.361 140.761 175.569 139.631 175.229 138.2 174.894 136.773 175.13 135.454 175.937 134.244V134.244C176.626 133.211 177.449 132.218 178.406 131.265V131.265C179.571 132.066 180.196 132.495 180.281 132.552V132.552C180.413 132.64 180.415 132.778 180.29 132.966V132.966C180.233 133.052 180.175 133.096 180.116 133.098V133.098C179.986 133.044 179.848 132.998 179.702 132.958 179.555 132.918 179.346 132.898 179.074 132.898 178.798 132.903 178.533 132.949 178.278 133.035 178.019 133.126 177.732 133.302 177.418 133.562 177.095 133.825 176.796 134.162 176.522 134.573V134.573C175.947 135.434 175.838 136.421 176.193 137.532 176.549 138.644 177.206 139.519 178.165 140.158V140.158C178.873 140.63 179.608 140.944 180.371 141.098 181.129 141.248 181.881 141.189 182.629 140.921 183.371 140.649 183.986 140.148 184.473 139.417V139.417C185.052 138.55 185.245 137.71 185.053 136.897V136.897C185.001 136.69 184.898 136.468 184.742 136.232 184.595 135.994 184.463 135.803 184.345 135.658 184.237 135.512 184.19 135.427 184.205 135.404V135.404C184.24 135.353 184.29 135.296 184.357 135.233 184.423 135.17 184.48 135.122 184.528 135.088ZM189.19 125.745L189.273 125.694C189.378 125.746 189.703 125.993 190.249 126.435 190.804 126.874 191.083 127.128 191.087 127.199V127.199C191.151 128.098 190.792 129.33 190.01 130.894V130.894C189.387 132.14 188.4 132.97 187.05 133.384 185.7 133.798 184.393 133.689 183.129 133.057V133.057C181.792 132.388 180.865 131.365 180.35 129.988 179.84 128.613 179.911 127.275 180.561 125.975V125.975C181.117 124.864 181.81 123.776 182.642 122.712V122.712C183.896 123.362 184.57 123.71 184.662 123.756V123.756C184.803 123.827 184.823 123.963 184.722 124.166V124.166C184.676 124.258 184.624 124.309 184.565 124.318V124.318C184.43 124.281 184.288 124.252 184.137 124.23 183.987 124.209 183.777 124.215 183.507 124.249 183.234 124.289 182.976 124.367 182.734 124.483 182.488 124.606 182.226 124.816 181.947 125.114 181.658 125.415 181.404 125.786 181.183 126.228V126.228C180.719 127.154 180.733 128.147 181.224 129.205 181.715 130.264 182.476 131.051 183.507 131.566V131.566C184.268 131.947 185.036 132.166 185.812 132.224 186.582 132.28 187.322 132.128 188.031 131.769 188.733 131.407 189.281 130.833 189.674 130.048V130.048C190.14 129.115 190.227 128.257 189.936 127.475V127.475C189.859 127.276 189.729 127.068 189.545 126.854 189.37 126.636 189.215 126.462 189.08 126.334 188.954 126.202 188.897 126.123 188.91 126.099V126.099C188.937 126.044 188.98 125.981 189.039 125.91 189.097 125.84 189.147 125.784 189.19 125.744ZM184.592 117.796V117.796C184.264 118.742 184.418 119.635 185.056 120.474 185.69 121.304 186.552 121.909 187.64 122.287V122.287C188.437 122.564 189.234 122.696 190.031 122.682 190.827 122.668 191.556 122.471 192.219 122.091 192.883 121.705 193.344 121.142 193.6 120.403V120.403C193.821 119.768 193.807 119.139 193.559 118.515 193.318 117.894 192.927 117.366 192.388 116.932 191.858 116.493 191.243 116.152 190.543 115.909V115.909C189.746 115.632 188.949 115.501 188.152 115.514 187.363 115.53 186.635 115.732 185.971 116.118 185.309 116.498 184.849 117.057 184.592 117.796ZM191.508 123.729C190.201 124.313 188.851 124.363 187.457 123.879 186.058 123.393 185.023 122.514 184.353 121.243 183.686 119.965 183.581 118.669 184.038 117.353 184.495 116.037 185.383 115.082 186.701 114.487 188.017 113.898 189.375 113.847 190.774 114.334 192.168 114.818 193.195 115.698 193.855 116.973 194.514 118.255 194.615 119.554 194.157 120.869 193.7 122.185 192.817 123.138 191.508 123.729ZM26.612 92.55C26.612 91.382 27.558 90.436 28.726 90.436 29.894 90.436 30.841 91.382 30.841 92.55 30.841 93.718 29.894 94.665 28.726 94.665 27.558 94.665 26.612 93.718 26.612 92.55ZM193.159 92.55C193.159 91.382 194.106 90.436 195.274 90.436 196.442 90.436 197.388 91.382 197.388 92.55 197.388 93.718 196.442 94.665 195.274 94.665 194.106 94.665 193.159 93.718 193.159 92.55Z" fill="#ffffff" data-fill-palette-color="primary"></path></svg></g></svg></g></svg></g></svg></g></svg></g></svg></g><defs></defs></svg><rect width="320" height="360" fill="none" stroke="none" visibility="hidden"></rect></g></svg></g></svg>